# xmcd CD database file
#
# Track frame offsets:
#	150
#	20595
#	42337
#	63970
#	86520
#	101472
#	122072
#	143507
#	159557
#	182700
#
# Disc length: 2696 seconds
#
# Revision: 5
# Processed by: cddbd v1.5.2PL0 Copyright (c) Steve Scherf et al.
# Submitted via: CDex 2.23
#
DISCID=7b0a860a
DTITLE=Four Tops - Indestructible
DYEAR=1988
DGENRE=Soul
TTITLE0=Indestructible
TTITLE1=Change Of Heart
TTITLE2=If Ever A Love There Was (Duet With Aretha Franklin)
TTITLE3=The Sun Ain't Gonna Shine
TTITLE4=Next Time
TTITLE5=Loco In Acapulco
TTITLE6=Are You With Me
TTITLE7=I'm Only Wounded
TTITLE8=When You Dance
TTITLE9=Let's Jam
EXTD=YEAR: 1988
EXTT0=
EXTT1=
EXTT2=
EXTT3=
EXTT4=
EXTT5=
EXTT6=
EXTT7=
EXTT8=
EXTT9=
PLAYORDER=
